<svg version="1.1" xmlns="http://www.w3.org/2000/svg" xmlns:xlink="http://www.w3.org/1999/xlink" x="0px" y="0px"
	 width="100%" viewBox="935 475 50 50">
<path fill="#FFF" d="M974.189,517.089l1.323-4.719l2.688,3.096l-1.15,4.107L974.189,517.089z M970.417,513.812l1.551-5.523
	l2.684,3.091l-1.378,4.915L970.417,513.812z M966.649,510.538l1.771-6.334l2.687,3.093l-1.604,5.72L966.649,510.538z
	 M963.562,507.855l3.747-3.748l-1.574,5.637L963.562,507.855z M978.165,520.543l-0.199-0.174l1.095-3.912l1.483,1.706
	L978.165,520.543z M975.286,476.908c2.091-2.408,5.799-2.574,8.09-0.284c2.271,2.271,2.141,5.983-0.285,8.09l-17.58,15.271
	c-0.007,0.004-0.014,0.005-0.021,0.01c-0.005,0.005-0.006,0.012-0.013,0.018l-8.206,7.125l-4.411-4.409L975.286,476.908z
	 M954.268,509.748l-1.577-5.64l3.751,3.75L954.268,509.748z M950.499,513.021l-1.606-5.725l2.687-3.093l1.772,6.34L950.499,513.021z
	 M946.728,516.298l-1.381-4.92l2.685-3.093l1.552,5.53L946.728,516.298z M942.952,519.576l-1.152-4.113l2.688-3.095l1.325,4.725
	L942.952,519.576z M936.907,484.714c-2.415-2.095-2.561-5.811-0.279-8.086c2.301-2.3,6.022-2.103,8.087,0.279l14.562,16.764
	l-5.182,5.966L936.907,484.714z M942.367,524.586c-0.486,0.486-1.235,0.554-1.807,0.139c-0.137-0.087,0.105,0.123-5.153-5.126
	c-0.538-0.538-0.542-1.418,0.006-1.966c0.54-0.539,1.419-0.54,1.96,0c0.305,0.305,5.104,5.104,4.993,4.992
	C942.911,523.169,942.904,524.049,942.367,524.586z M939.454,518.163l1.485-1.709l1.098,3.918l-0.2,0.174L939.454,518.163z
	 M965.8,501.186l1.338,1.543l-4.405,4.405l-1.892-1.642L965.8,501.186z M984.728,519.439c-0.073,0.109-5.146,5.192-5.313,5.304
	c-0.547,0.396-1.294,0.33-1.779-0.156c-0.512-0.511-0.574-1.385,0-1.961c1.832-1.833,3.146-3.146,4.992-4.992
	c0.537-0.538,1.415-0.542,1.96,0C985.04,518.085,985.164,518.839,984.728,519.439z"/>
</svg>
