<svg version="1.1" xmlns="http://www.w3.org/2000/svg" xmlns:xlink="http://www.w3.org/1999/xlink" x="0px" y="0px"
	 width="100%" viewBox="935 475 50 50">
<g>
	<path fill="#FFF" d="M960,525c-4.603,0-8.333-3.73-8.333-8.334c0-4.602,3.731-8.332,8.333-8.332s8.333,3.73,8.333,8.332
		C968.328,521.268,964.601,524.994,960,525z M960,510.416c-3.452,0-6.25,2.799-6.25,6.25c0,3.453,2.798,6.25,6.25,6.25
		c3.452,0,6.25-2.797,6.25-6.25C966.246,513.217,963.45,510.42,960,510.416z"/>
	<path fill="#FFF" d="M960,518.75c-0.226,0-0.445-0.073-0.625-0.209l-4.167-3.125c-0.262-0.196-0.417-0.505-0.417-0.832v-4.168
		h2.083v3.646l3.125,2.344l3.125-2.344v-3.646h2.083v4.168c0,0.327-0.154,0.636-0.416,0.832l-4.167,3.125
		C960.445,518.677,960.226,518.75,960,518.75z"/>
	
		<rect x="966.565" y="513.022" transform="matrix(-0.644 0.765 -0.765 -0.644 1985.6796 104.1541)" fill="#FFFFFF" width="4.085" height="2.083"/>
	<path fill="#FFF" d="M951.912,516.296l-16.667-19.792c-0.158-0.188-0.245-0.426-0.245-0.671C935,484.93,946.916,475,960,475
		c13.084,0,25,9.93,25,20.833c0,0.245-0.087,0.483-0.245,0.671l-12.28,14.583l-1.595-1.344l12.037-14.284
		c-0.276-8.754-9.984-18.377-22.917-18.377c-12.932,0-22.641,9.623-22.912,18.377l16.417,19.494L951.912,516.296z"/>
	
		<rect x="959.711" y="502.604" transform="matrix(-0.7071 0.7071 -0.7071 -0.7071 2008.2913 175.4295)" fill="#FFFFFF" width="16.204" height="2.083"/>
	
		<rect x="966.249" y="480.742" transform="matrix(-0.7072 0.707 -0.707 -0.7072 1997.5104 151.9606)" fill="#FFFFFF" width="2.084" height="17.678"/>
	
		<rect x="950.157" y="485.938" transform="matrix(-0.7071 0.7071 -0.7071 -0.7071 1975.1783 155.8529)" fill="#FFFFFF" width="10.311" height="2.083"/>
	
		<rect x="945.811" y="493.229" transform="matrix(-0.7071 0.7071 -0.7071 -0.7071 1967.8757 173.4197)" fill="#FFFFFF" width="4.42" height="2.083"/>
	
		<rect x="951.147" y="495.544" transform="matrix(-0.7071 0.7071 -0.7071 -0.7071 1981.6204 186.4809)" fill="#FFFFFF" width="2.083" height="16.207"/>
	<path fill="#FFF" d="M960,486.459c-0.276,0-0.541-0.11-0.736-0.305l-3.125-3.125c-0.407-0.407-0.407-1.066,0-1.473l3.125-3.125
		c0.407-0.407,1.066-0.407,1.473,0l3.125,3.125c0.407,0.407,0.407,1.066,0,1.473l-3.125,3.125
		C960.541,486.349,960.276,486.459,960,486.459z M958.348,482.292l1.652,1.652l1.652-1.652L960,480.64L958.348,482.292z"/>
	<path fill="#FFF" d="M974.583,501.041c-0.276,0-0.541-0.109-0.736-0.305l-3.125-3.125c-0.406-0.407-0.406-1.066,0-1.473
		l3.125-3.125c0.407-0.407,1.066-0.407,1.474,0l3.125,3.125c0.406,0.407,0.406,1.066,0,1.473l-3.125,3.125
		C975.125,500.932,974.859,501.041,974.583,501.041z M972.932,496.875l1.651,1.652l1.652-1.652l-1.652-1.652L972.932,496.875z"/>
	<path fill="#FFF" d="M945.417,501.041c-0.276,0-0.541-0.109-0.736-0.305l-3.125-3.125c-0.407-0.407-0.407-1.066,0-1.473
		l3.125-3.125c0.407-0.407,1.066-0.407,1.473,0l3.125,3.125c0.406,0.407,0.406,1.066,0,1.473l-3.125,3.125
		C945.958,500.932,945.693,501.041,945.417,501.041z M943.765,496.875l1.652,1.652l1.652-1.652l-1.652-1.652L943.765,496.875z"/>
</g>
</svg>
