<svg version="1.1" xmlns="http://www.w3.org/2000/svg" xmlns:xlink="http://www.w3.org/1999/xlink" x="0px" y="0px"
	 width="100%" viewBox="0 0 200 44.889">
<g>
	<g>
		<path fill="#fff" d="M23.01,4.544c-2.032,0.782-3.126,2.188-5.314,1.251c0.313-0.157,1.094-0.781,1.407-1.251
			c0.313-0.156,1.408,0.156,1.408,0.156c0.155,0,0.468-0.313,0.468-0.625c0.156,0.156,0,0.625-0.155,0.625
			C20.823,4.701,21.447,4.857,23.01,4.544z M20.979,5.17c-0.626-0.313-1.094-0.47-1.72-0.313c-0.156,0.157-0.468,0.47-0.625,0.626
			c0,0,0.625,0.313,1.25,0.155C20.666,5.327,20.979,5.17,20.979,5.17z"/>
		<path fill="#fff" d="M29.42,4.388l-1.563,1.095v0.937l-0.625-0.469l-0.626,0.781c0,0,0.469,0,0.626,0c0-0.156,0-0.468,0-0.468
			s0.313,0.468,0.468,0.468c0.157,0,1.408-1.095,1.72-1.25c0.312-0.157,0.625,0,0.625,0C30.2,5.483,29.889,4.701,29.42,4.388z"/>
		<path fill="#fff" d="M12.851,28.929c1.094-1.096,2.969-1.564,1.25,4.532c2.345-2.345,1.563-6.252,3.126-8.442
			c0.469,0.782,0.938,2.971,0.626,5.628c1.25-3.596,0.625-5.94,0-7.503c-0.626,1.407-1.875,0.781-2.345,0.469
			c2.032-0.158,1.094-3.596,0.938-4.377c7.191,5.158,6.096,11.098,2.971,16.1c0.469-2.032,0.782-3.907,0.313-5.627
			c0,4.532-2.032,7.188-5.002,8.909c1.094-1.875,1.875-2.97,1.875-5.157c-1.094,4.063-3.908,7.034-7.034,8.753
			c1.25-0.938,2.189-2.502,2.5-4.533c0.313-2.813-0.781-2.032-1.094-1.563c-0.625,1.095-1.094,2.656-1.094,2.656
			c-0.781-4.688,2.658-5.469,1.564-10.471c-0.782-2.345-2.345-4.378-4.064-1.72c-0.937,1.095-1.094,2.813-1.094,2.813
			c-0.78-2.5-0.469-4.844,1.094-6.252c-0.937,0.156-2.032,0.938-2.5,1.719c0.781-2.971,3.438-2.033,5.47-4.532
			c0,0.938-0.625,1.562-1.25,2.344c1.719-0.469,3.439-2.344,4.065-3.908c0.155,1.719-0.469,3.752-1.563,5.002
			c2.189-0.782,3.126-3.438,3.752-6.408c0,0,1.406,4.377,0.313,5.002c-2.971,1.718-1.407,2.969-0.157,2.344
			C15.353,26.583,12.694,25.803,12.851,28.929z"/>
		<path fill="#fff" d="M1.909,4.232c2.345,3.908,9.378,0.156,8.284,1.875c1.094,0.469,6.565-3.438,10.785-2.188
			c0.468,0.156,4.689-2.188,6.253-2.345c0.313-0.313,0.625-0.938,0.937-0.625c1.094,0.625,1.094-0.313,1.094,1.095
			c-3.751-1.251-4.22,3.126-8.91,4.688c-2.813,0.938-4.063-2.345-7.347-0.468c-1.249,0.781-5.938,0.469-5.938,0.469
			c5.158,0.469,3.908,2.345,0.469,2.345c5.782,1.719,4.845-5.158,11.566-1.563c1.094,0.468-0.469,2.344-0.938,2.344
			c-0.313,0.156,0.781,0.313,1.875-0.469l7.034-6.721c1.407-0.156,2.97-0.156,2.188,1.563c1.25-0.626,0.626-2.032,0.157-2.657
			c0.155-0.781-0.47-2.032-1.251-1.406c-0.469,0.313-0.937,0.781-0.937,0.781c-2.033,0.781-3.283,1.095-5.002,2.031
			c-1.563,0.781-1.406,0.938-1.875-0.156c-3.908,0.469-5.314,0.469-9.065,2.502C8.786,4.232,6.443,5.483,1.909,4.232z M3.315,25.958
			c-1.25-3.439,0.626-7.19,3.909-8.754c-1.875-0.156-3.283,1.72-4.377,2.971c0.781-2.813,2.814-4.376,5.314-5.471
			c-1.093-0.625-2.5-0.155-3.751,0.313c0.625-0.469,1.407-0.938,2.188-1.407c0.626-4.689-3.751-4.845-3.751-7.814
			c1.25,2.188,2.814,0.938,4.845,2.188C3.16,7.203,8.943,11.11,9.568,10.016c2.032,0,2.657,0.938,2.657,0.938
			c-0.157-0.313-1.876-0.625-2.032,0.313c-2.814-0.47-2.656,0.938-2.501,2.032c1.095-0.626,1.72-0.781,2.657-0.938
			c-1.25,2.344,0.938,1.094,3.127,1.406c-1.72,0.469-4.221,2.657-3.908,4.689C5.974,19.394,3.785,22.676,3.315,25.958z
			 M26.137,8.921c-0.938,0.938-3.596,2.813-2.188,5.314c-0.469-2.97,3.596-4.846,5.94-5.627c0.937-2.657,1.407-1.876,0.313-2.813
			h-0.313L29.42,8.296C29.42,8.296,27.075,7.983,26.137,8.921z"/>
		<path fill="#fff" d="M24.574,8.921c0,0-1.563,1.563-2.97,2.188c-1.251,0.625-3.596,0.781-4.221,0.313
			c-0.469-0.468-0.938,1.877-0.938,1.877s-1.406-1.877-1.563-1.095c-0.156,0.781-0.156,2.813,0.312,3.596
			c0.782,1.719,4.065,0.938,5.159,3.125c1.094-2.501-5.314-2.501-2.656-5.472c-0.156,2.346,3.282,2.346,4.221,4.846
			c0.469-1.406-1.406-5.158-2.501-5.471c0,0,1.719,0.156,2.657,0.156c0.78-0.156,1.563-0.938,0.937-1.095
			C22.541,11.579,24.417,10.641,24.574,8.921z"/>
		<path fill="#fff" d="M23.479,14.548c0.782,4.22,6.252,5.158,2.971,11.564c-0.156-1.094-0.313-2.813-1.407-3.282
			c-0.313-0.312-0.781,0-0.625,0.47c0.156,0.938,0.782,2.501,1.094,3.126c1.094,2.188,0.782,3.751-0.782,5.627
			c0-1.25,0-3.438-1.094-4.22c-0.782-0.469-1.25,0.155-1.095,0.936c-2.031-1.094,1.875-3.906,2.813,1.252
			c0-0.158,0-0.47,0.157-0.782c0-0.781-0.157-1.72-0.626-2.5c-0.313-0.626-0.782-2.345-0.782-3.439
			c-0.155-2.656,1.876-0.469,2.345,0.938C27.856,19.394,23.323,17.831,23.479,14.548z"/>
		<path fill="none" stroke="#fff" stroke-width="2" stroke-miterlimit="10" d="M32.499,5.173c0,0,45.823-13.773-19.746,28.611"/>
		<g>
			<g>
				<polygon fill="#FFB11B" points="7.478,35.542 9.333,26.192 11.219,35.537 				"/>
				<polygon fill="#FFB11B" points="7.478,35.542 9.362,44.889 11.219,35.537 				"/>
			</g>
			<g>
				<polygon fill="#FFB11B" points="9.352,37.411 0,35.554 9.346,33.669 				"/>
				<polygon fill="#FFB11B" points="9.352,37.411 18.697,35.526 9.346,33.669 				"/>
			</g>
		</g>
	</g>
	<g>
		<g enable-background="new    ">
			<path fill="#E2CDA1" d="M74.899,14.475c0,0.144-0.185,0.239-0.555,0.239c-0.278,0-0.463-0.144-0.556-0.335
				c-1.48-3.872-5.922-9.896-10.179-9.896c-2.313,0-2.499,1.004-2.499,2.247c0,2.343,1.203,4.686,8.05,12.191
				c6.478,7.076,7.218,8.654,7.218,12.431c0,5.068-5.089,6.598-8.513,6.598c-2.499,0-4.071-0.525-5.182-0.908
				c-1.018-0.334-1.573-0.478-1.851-0.478c-0.37,0-1.111,0.334-2.961,1.052c-0.371,0.144-0.741,0.334-1.111,0.334
				c-0.37,0-0.463-0.095-0.463-0.239V25.663c0-0.143,0.093-0.335,0.463-0.335c0.278,0,0.463,0.192,0.555,0.335
				c1.666,3.825,4.534,9.897,9.994,9.897c1.758,0,2.684-1.005,2.684-2.486c0-3.204-2.776-6.694-8.051-12.431
				c-4.997-5.451-6.848-9.084-6.848-12.574c0-4.543,3.794-5.977,8.514-5.977c1.758,0,3.794,0.525,5.182,1.1
				c0.462,0.144,1.018,0.287,1.388,0.287c0.371,0,1.295-0.335,2.128-0.766c0.833-0.383,1.388-0.621,1.943-0.621
				c0.462,0,0.647,0.238,0.647,0.525V14.475z"/>
			<path fill="#E2CDA1" d="M83.966,5.535c0-0.574-0.185-1.004-0.833-1.339l-2.776-1.387c-0.185-0.144-0.648-0.286-0.648-0.431
				c0-0.143,0.185-0.286,0.556-0.286h14.528c0.37,0,0.555,0.144,0.555,0.286c0,0.145-0.463,0.287-0.648,0.431l-2.776,1.387
				c-0.648,0.335-0.833,0.765-0.833,1.339v28.973c0,0.574,0.185,1.005,0.833,1.34l2.776,1.386c0.185,0.145,0.648,0.286,0.648,0.431
				c0,0.144-0.186,0.286-0.555,0.286H80.265c-0.371,0-0.556-0.143-0.556-0.286c0-0.145,0.463-0.286,0.648-0.431l2.776-1.386
				c0.648-0.335,0.833-0.766,0.833-1.34V5.535z"/>
			<path fill="#E2CDA1" d="M108.95,34.507c0,0.574,0.186,1.005,0.833,1.34l2.775,1.386c0.186,0.145,0.647,0.286,0.647,0.431
				c0,0.144-0.185,0.286-0.555,0.286H98.123c-0.37,0-0.556-0.143-0.556-0.286c0-0.145,0.463-0.286,0.648-0.431l2.776-1.386
				c0.648-0.335,0.833-0.766,0.833-1.34V5.535c0-0.574-0.185-1.004-0.833-1.339l-2.776-1.387c-0.185-0.144-0.648-0.286-0.648-0.431
				c0-0.143,0.186-0.286,0.556-0.286h11.567c9.624,0,14.621,2.63,14.621,8.845c0,5.308-3.609,7.459-6.849,8.511
				c3.146,0.86,5.923,2.726,5.923,5.354v9.993c0,0.335,0.37,0.622,0.833,0.86l2.961,1.626c0.37,0.191,0.741,0.383,0.741,0.526
				c0,0.143-0.464,0.143-0.927,0.143h-4.812c-4.257,0-5.922-1.434-5.922-3.059v-10.28c0-2.104-2.498-3.681-5.737-3.681h-1.573
				V34.507z M108.95,18.539h1.388c4.534,0,6.386-1.864,6.386-7.602c0-4.877-1.852-6.454-6.386-6.454h-1.388V18.539z"/>
			<path fill="#E2CDA1" d="M133.285,5.535c0-0.574-0.185-1.004-0.833-1.339l-2.776-1.387c-0.185-0.144-0.647-0.286-0.647-0.431
				c0-0.143,0.186-0.286,0.556-0.286h14.528c0.37,0,0.556,0.144,0.556,0.286c0,0.145-0.464,0.287-0.648,0.431l-2.776,1.387
				c-0.647,0.335-0.832,0.765-0.832,1.339v28.973c0,0.574,0.185,1.005,0.832,1.34l2.776,1.386c0.185,0.145,0.648,0.286,0.648,0.431
				c0,0.144-0.186,0.286-0.556,0.286h-14.528c-0.37,0-0.556-0.143-0.556-0.286c0-0.145,0.463-0.286,0.647-0.431l2.776-1.386
				c0.648-0.335,0.833-0.766,0.833-1.34V5.535z"/>
			<path fill="#E2CDA1" d="M150.218,5.535c0-0.574-0.185-1.052-0.739-1.339l-2.87-1.387c-0.277-0.144-0.462-0.286-0.462-0.431
				c0-0.143,0.185-0.286,0.555-0.286h14.158c0.371,0,0.556,0.144,0.556,0.286c0,0.145-0.185,0.287-0.463,0.431l-2.869,1.387
				c-0.462,0.287-0.739,0.765-0.739,1.339v26.009c0,2.104,0.369,4.017,4.719,4.017c3.424,0,4.35-1.913,4.35-4.017V5.535
				c0-0.574-0.185-1.052-0.741-1.339l-2.868-1.387c-0.277-0.144-0.463-0.286-0.463-0.431c0-0.143,0.186-0.286,0.556-0.286h12.678
				c0.37,0,0.556,0.144,0.556,0.286c0,0.145-0.186,0.287-0.463,0.431l-2.868,1.387c-0.464,0.287-0.741,0.765-0.741,1.339v27.252
				c0,2.964-4.442,5.163-10.733,5.163c-7.311,0-11.105-2.199-11.105-5.163V5.535z"/>
			<path fill="#E2CDA1" d="M198.519,14.475c0,0.144-0.185,0.239-0.555,0.239c-0.277,0-0.463-0.144-0.555-0.335
				c-1.481-3.872-5.923-9.896-10.179-9.896c-2.313,0-2.499,1.004-2.499,2.247c0,2.343,1.203,4.686,8.051,12.191
				C199.26,25.998,200,27.576,200,31.352c0,5.068-5.09,6.598-8.514,6.598c-2.499,0-4.071-0.525-5.183-0.908
				c-1.017-0.334-1.572-0.478-1.851-0.478c-0.37,0-1.11,0.334-2.961,1.052c-0.37,0.144-0.74,0.334-1.11,0.334
				c-0.369,0-0.463-0.095-0.463-0.239V25.663c0-0.143,0.094-0.335,0.463-0.335c0.278,0,0.463,0.192,0.556,0.335
				c1.666,3.825,4.534,9.897,9.993,9.897c1.759,0,2.684-1.005,2.684-2.486c0-3.204-2.775-6.694-8.05-12.431
				c-4.997-5.451-6.848-9.084-6.848-12.574c0-4.543,3.794-5.977,8.514-5.977c1.757,0,3.793,0.525,5.182,1.1
				c0.462,0.144,1.018,0.287,1.388,0.287c0.371,0,1.296-0.335,2.128-0.766c0.834-0.383,1.389-0.621,1.943-0.621
				c0.463,0,0.647,0.238,0.647,0.525V14.475z"/>
		</g>
		<g enable-background="new    ">
			<path fill="#F2F2F2" d="M73.505,14.042c0,0.144-0.185,0.239-0.555,0.239c-0.278,0-0.463-0.144-0.555-0.335
				c-1.48-3.872-5.922-9.896-10.179-9.896c-2.313,0-2.499,1.004-2.499,2.247c0,2.343,1.203,4.686,8.051,12.191
				c6.478,7.076,7.218,8.654,7.218,12.432c0,5.067-5.089,6.598-8.513,6.598c-2.499,0-4.071-0.526-5.182-0.908
				c-1.018-0.336-1.573-0.478-1.851-0.478c-0.37,0-1.111,0.333-2.961,1.051c-0.371,0.144-0.741,0.335-1.111,0.335
				s-0.463-0.097-0.463-0.238v-12.05c0-0.143,0.093-0.334,0.463-0.334c0.278,0,0.463,0.191,0.555,0.334
				c1.666,3.825,4.534,9.896,9.994,9.896c1.759,0,2.684-1.003,2.684-2.486c0-3.202-2.776-6.692-8.051-12.43
				c-4.997-5.451-6.848-9.084-6.848-12.574c0-4.543,3.794-5.977,8.514-5.977c1.758,0,3.794,0.525,5.182,1.1
				c0.462,0.144,1.018,0.287,1.388,0.287s1.295-0.335,2.128-0.766c0.833-0.382,1.388-0.621,1.943-0.621
				c0.463,0,0.648,0.239,0.648,0.525V14.042z"/>
			<path fill="#F2F2F2" d="M82.572,5.101c0-0.573-0.185-1.004-0.833-1.339l-2.776-1.387c-0.185-0.144-0.647-0.286-0.647-0.43
				s0.185-0.287,0.555-0.287h14.529c0.37,0,0.555,0.144,0.555,0.287s-0.462,0.286-0.647,0.43L90.53,3.762
				c-0.647,0.335-0.833,0.766-0.833,1.339v28.974c0,0.573,0.185,1.004,0.833,1.339l2.776,1.386c0.185,0.144,0.647,0.287,0.647,0.431
				s-0.185,0.287-0.555,0.287H78.871c-0.37,0-0.555-0.144-0.555-0.287s0.462-0.287,0.647-0.431l2.776-1.386
				c0.648-0.335,0.833-0.766,0.833-1.339V5.101z"/>
			<path fill="#F2F2F2" d="M107.556,34.075c0,0.573,0.186,1.004,0.833,1.339l2.775,1.386c0.186,0.144,0.648,0.287,0.648,0.431
				s-0.185,0.287-0.556,0.287H96.729c-0.371,0-0.556-0.144-0.556-0.287s0.462-0.287,0.648-0.431l2.776-1.386
				c0.648-0.335,0.833-0.766,0.833-1.339V5.101c0-0.573-0.185-1.004-0.833-1.339l-2.776-1.387c-0.186-0.144-0.648-0.286-0.648-0.43
				s0.185-0.287,0.556-0.287h11.567c9.624,0,14.621,2.63,14.621,8.845c0,5.308-3.608,7.459-6.849,8.511
				c3.147,0.86,5.923,2.726,5.923,5.355v9.992c0,0.334,0.37,0.621,0.833,0.861l2.962,1.625c0.37,0.191,0.74,0.382,0.74,0.525
				s-0.463,0.144-0.927,0.144h-4.812c-4.256,0-5.922-1.435-5.922-3.061V24.177c0-2.104-2.498-3.681-5.736-3.681h-1.574V34.075z
				 M107.556,18.106h1.388c4.534,0,6.386-1.864,6.386-7.603c0-4.877-1.852-6.454-6.386-6.454h-1.388V18.106z"/>
			<path fill="#F2F2F2" d="M131.891,5.101c0-0.573-0.185-1.004-0.832-1.339l-2.776-1.387c-0.185-0.144-0.648-0.286-0.648-0.43
				s0.186-0.287,0.557-0.287h14.528c0.369,0,0.555,0.144,0.555,0.287s-0.463,0.286-0.647,0.43l-2.777,1.387
				c-0.647,0.335-0.832,0.766-0.832,1.339v28.974c0,0.573,0.185,1.004,0.832,1.339l2.777,1.386c0.185,0.144,0.647,0.287,0.647,0.431
				s-0.186,0.287-0.555,0.287H128.19c-0.371,0-0.557-0.144-0.557-0.287s0.464-0.287,0.648-0.431l2.776-1.386
				c0.647-0.335,0.832-0.766,0.832-1.339V5.101z"/>
			<path fill="#F2F2F2" d="M148.823,5.101c0-0.573-0.185-1.052-0.739-1.339l-2.869-1.387c-0.277-0.144-0.462-0.286-0.462-0.43
				s0.185-0.287,0.555-0.287h14.158c0.37,0,0.555,0.144,0.555,0.287s-0.185,0.286-0.462,0.43l-2.869,1.387
				c-0.463,0.287-0.74,0.766-0.74,1.339V31.11c0,2.104,0.369,4.016,4.719,4.016c3.425,0,4.35-1.911,4.35-4.016V5.101
				c0-0.573-0.185-1.052-0.74-1.339l-2.868-1.387c-0.277-0.144-0.464-0.286-0.464-0.43s0.187-0.287,0.557-0.287h12.677
				c0.37,0,0.556,0.144,0.556,0.287s-0.186,0.286-0.463,0.43l-2.868,1.387c-0.463,0.287-0.74,0.766-0.74,1.339v27.252
				c0,2.965-4.442,5.164-10.734,5.164c-7.311,0-11.105-2.199-11.105-5.164V5.101z"/>
			<path fill="#F2F2F2" d="M197.125,14.042c0,0.144-0.185,0.239-0.556,0.239c-0.277,0-0.463-0.144-0.555-0.335
				c-1.48-3.872-5.922-9.896-10.179-9.896c-2.313,0-2.499,1.004-2.499,2.247c0,2.343,1.203,4.686,8.051,12.191
				c6.478,7.076,7.218,8.654,7.218,12.432c0,5.067-5.09,6.598-8.513,6.598c-2.499,0-4.072-0.526-5.183-0.908
				c-1.018-0.336-1.573-0.478-1.851-0.478c-0.37,0-1.111,0.333-2.961,1.051c-0.371,0.144-0.741,0.335-1.111,0.335
				c-0.369,0-0.462-0.097-0.462-0.238v-12.05c0-0.143,0.093-0.334,0.462-0.334c0.278,0,0.463,0.191,0.556,0.334
				c1.666,3.825,4.534,9.896,9.993,9.896c1.759,0,2.685-1.003,2.685-2.486c0-3.202-2.776-6.692-8.051-12.43
				c-4.997-5.451-6.848-9.084-6.848-12.574c0-4.543,3.794-5.977,8.514-5.977c1.758,0,3.794,0.525,5.182,1.1
				c0.462,0.144,1.019,0.287,1.389,0.287s1.295-0.335,2.128-0.766c0.833-0.382,1.388-0.621,1.942-0.621
				c0.464,0,0.648,0.239,0.648,0.525V14.042z"/>
		</g>
		<g enable-background="new    ">
			<path fill="none" stroke="#000000" stroke-miterlimit="10" d="M73.505,14.042c0,0.144-0.185,0.239-0.555,0.239
				c-0.278,0-0.463-0.144-0.555-0.335c-1.48-3.872-5.922-9.896-10.179-9.896c-2.313,0-2.499,1.004-2.499,2.247
				c0,2.343,1.203,4.686,8.051,12.191c6.478,7.076,7.218,8.654,7.218,12.432c0,5.067-5.089,6.598-8.513,6.598
				c-2.499,0-4.071-0.526-5.182-0.908c-1.018-0.336-1.573-0.478-1.851-0.478c-0.37,0-1.111,0.333-2.961,1.051
				c-0.371,0.144-0.741,0.335-1.111,0.335s-0.463-0.097-0.463-0.238v-12.05c0-0.143,0.093-0.334,0.463-0.334
				c0.278,0,0.463,0.191,0.555,0.334c1.666,3.825,4.534,9.896,9.994,9.896c1.759,0,2.684-1.003,2.684-2.486
				c0-3.202-2.776-6.692-8.051-12.43c-4.997-5.451-6.848-9.084-6.848-12.574c0-4.543,3.794-5.977,8.514-5.977
				c1.758,0,3.794,0.525,5.182,1.1c0.462,0.144,1.018,0.287,1.388,0.287s1.295-0.335,2.128-0.766
				c0.833-0.382,1.388-0.621,1.943-0.621c0.463,0,0.648,0.239,0.648,0.525V14.042z"/>
			<path fill="none" stroke="#000000" stroke-miterlimit="10" d="M82.572,5.101c0-0.573-0.185-1.004-0.833-1.339l-2.776-1.387
				c-0.185-0.144-0.647-0.286-0.647-0.43s0.185-0.287,0.555-0.287h14.529c0.37,0,0.555,0.144,0.555,0.287s-0.462,0.286-0.647,0.43
				L90.53,3.762c-0.647,0.335-0.833,0.766-0.833,1.339v28.974c0,0.573,0.185,1.004,0.833,1.339l2.776,1.386
				c0.185,0.144,0.647,0.287,0.647,0.431s-0.185,0.287-0.555,0.287H78.871c-0.37,0-0.555-0.144-0.555-0.287s0.462-0.287,0.647-0.431
				l2.776-1.386c0.648-0.335,0.833-0.766,0.833-1.339V5.101z"/>
			<path fill="none" stroke="#000000" stroke-miterlimit="10" d="M107.556,34.075c0,0.573,0.186,1.004,0.833,1.339l2.775,1.386
				c0.186,0.144,0.648,0.287,0.648,0.431s-0.185,0.287-0.556,0.287H96.729c-0.371,0-0.556-0.144-0.556-0.287
				s0.462-0.287,0.648-0.431l2.776-1.386c0.648-0.335,0.833-0.766,0.833-1.339V5.101c0-0.573-0.185-1.004-0.833-1.339l-2.776-1.387
				c-0.186-0.144-0.648-0.286-0.648-0.43s0.185-0.287,0.556-0.287h11.567c9.624,0,14.621,2.63,14.621,8.845
				c0,5.308-3.608,7.459-6.849,8.511c3.147,0.86,5.923,2.726,5.923,5.355v9.992c0,0.334,0.37,0.621,0.833,0.861l2.962,1.625
				c0.37,0.191,0.74,0.382,0.74,0.525s-0.463,0.144-0.927,0.144h-4.812c-4.256,0-5.922-1.435-5.922-3.061V24.177
				c0-2.104-2.498-3.681-5.736-3.681h-1.574V34.075z M107.556,18.106h1.388c4.534,0,6.386-1.864,6.386-7.603
				c0-4.877-1.852-6.454-6.386-6.454h-1.388V18.106z"/>
			<path fill="none" stroke="#000000" stroke-miterlimit="10" d="M131.891,5.101c0-0.573-0.185-1.004-0.832-1.339l-2.776-1.387
				c-0.185-0.144-0.648-0.286-0.648-0.43s0.186-0.287,0.557-0.287h14.528c0.369,0,0.555,0.144,0.555,0.287s-0.463,0.286-0.647,0.43
				l-2.777,1.387c-0.647,0.335-0.832,0.766-0.832,1.339v28.974c0,0.573,0.185,1.004,0.832,1.339l2.777,1.386
				c0.185,0.144,0.647,0.287,0.647,0.431s-0.186,0.287-0.555,0.287H128.19c-0.371,0-0.557-0.144-0.557-0.287
				s0.464-0.287,0.648-0.431l2.776-1.386c0.647-0.335,0.832-0.766,0.832-1.339V5.101z"/>
			<path fill="none" stroke="#000000" stroke-miterlimit="10" d="M148.823,5.101c0-0.573-0.185-1.052-0.739-1.339l-2.869-1.387
				c-0.277-0.144-0.462-0.286-0.462-0.43s0.185-0.287,0.555-0.287h14.158c0.37,0,0.555,0.144,0.555,0.287s-0.185,0.286-0.462,0.43
				l-2.869,1.387c-0.463,0.287-0.74,0.766-0.74,1.339V31.11c0,2.104,0.369,4.016,4.719,4.016c3.425,0,4.35-1.911,4.35-4.016V5.101
				c0-0.573-0.185-1.052-0.74-1.339l-2.868-1.387c-0.277-0.144-0.464-0.286-0.464-0.43s0.187-0.287,0.557-0.287h12.677
				c0.37,0,0.556,0.144,0.556,0.287s-0.186,0.286-0.463,0.43l-2.868,1.387c-0.463,0.287-0.74,0.766-0.74,1.339v27.252
				c0,2.965-4.442,5.164-10.734,5.164c-7.311,0-11.105-2.199-11.105-5.164V5.101z"/>
			<path fill="none" stroke="#000000" stroke-miterlimit="10" d="M197.125,14.042c0,0.144-0.185,0.239-0.556,0.239
				c-0.277,0-0.463-0.144-0.555-0.335c-1.48-3.872-5.922-9.896-10.179-9.896c-2.313,0-2.499,1.004-2.499,2.247
				c0,2.343,1.203,4.686,8.051,12.191c6.478,7.076,7.218,8.654,7.218,12.432c0,5.067-5.09,6.598-8.513,6.598
				c-2.499,0-4.072-0.526-5.183-0.908c-1.018-0.336-1.573-0.478-1.851-0.478c-0.37,0-1.111,0.333-2.961,1.051
				c-0.371,0.144-0.741,0.335-1.111,0.335c-0.369,0-0.462-0.097-0.462-0.238v-12.05c0-0.143,0.093-0.334,0.462-0.334
				c0.278,0,0.463,0.191,0.556,0.334c1.666,3.825,4.534,9.896,9.993,9.896c1.759,0,2.685-1.003,2.685-2.486
				c0-3.202-2.776-6.692-8.051-12.43c-4.997-5.451-6.848-9.084-6.848-12.574c0-4.543,3.794-5.977,8.514-5.977
				c1.758,0,3.794,0.525,5.182,1.1c0.462,0.144,1.019,0.287,1.389,0.287s1.295-0.335,2.128-0.766
				c0.833-0.382,1.388-0.621,1.942-0.621c0.464,0,0.648,0.239,0.648,0.525V14.042z"/>
		</g>
	</g>
</g>
</svg>
