<svg version="1.1" xmlns="http://www.w3.org/2000/svg" xmlns:xlink="http://www.w3.org/1999/xlink" x="0px" y="0px"
	 width="100%" viewBox="935 475 50 50">
<g display="none">
	<rect x="-976" y="0" display="inline" width="1480" height="792"/>
	<rect x="560" y="-288" display="inline" width="800" height="240"/>
	<text transform="matrix(1 0 0 1 1087.998 -156.0017)" display="inline" font-family="'ArialMT'" font-size="19.2">http://thenounproject.com</text>
	<text transform="matrix(1 0 0 1 617.3262 -196.0017)" display="inline" font-family="'ArialMT'" font-size="49.2624">The Noun Project</text>
	<text transform="matrix(1 0 0 1 626.2871 -157.6033)" display="inline" font-family="'ArialMT'" font-size="32">Icon Template</text>
	<text transform="matrix(1 0 0 1 -868.002 83.9983)" display="inline" font-family="'ArialMT'" font-size="49.2624">Reminders</text>
	<line display="inline" fill="none" stroke="#FFFFFF" stroke-miterlimit="10" x1="624" y1="-116" x2="704" y2="-116"/>
	<line display="inline" fill="none" stroke="#FFFFFF" stroke-miterlimit="10" x1="-872" y1="132" x2="-736" y2="132"/>
	<g display="inline">
		<g>
			<g>
				<rect x="-806.416" y="250.544" width="69.768" height="69.136"/>
				<path d="M-755.64,338.495h37.976v-37.624h-37.976V338.495z M-714.128,341.991h-45.04V297.36h45.04V341.991L-714.128,341.991z
					 M-769.768,352.495h66.232v-65.623h-66.232V352.495L-769.768,352.495z M-700,356h-73.304v-72.632H-700V356L-700,356z"/>
				<polygon points="-769.192,353.064 -770.336,351.928 -704.104,286.296 -702.968,287.432 				"/>
			</g>
		</g>
	</g>
	<rect x="-872" y="464" display="inline" fill="none" width="280" height="260"/>
	<text transform="matrix(1 0 0 1 -872.002 481.2561)" display="inline" font-family="'ArialMT'" font-size="24">Strokes</text>
	<text transform="matrix(1 0 0 1 -872.002 521.2561)" display="inline" font-family="'ArialMT'" font-size="19.2">Try to keep strokes at 4px</text>
	<text transform="matrix(1 0 0 1 -872.002 561.2561)" display="inline" font-family="'ArialMT'" font-size="19.2">Minimum stroke weight is 2px</text>
	<text transform="matrix(1 0 0 1 -872.002 597.2561)" display="inline" font-family="'ArialMT'" font-size="19.2">For thicker strokes use even </text>
	<text transform="matrix(1 0 0 1 -872.002 621.2561)" display="inline" font-family="'ArialMT'" font-size="19.2">numbers: 6px, 8px etc.</text>
	<text transform="matrix(1 0 0 1 -872.002 657.2561)" display="inline" font-family="'ArialMT'" font-size="19.2">Remember to expand strokes </text>
	<text transform="matrix(1 0 0 1 -872.002 681.2561)" display="inline" font-family="'ArialMT'" font-size="19.2">before saving as an SVG </text>
	<rect x="-532" y="464" display="inline" fill="none" width="280" height="260"/>
	<text transform="matrix(1 0 0 1 -532.002 481.2561)" display="inline" font-family="'ArialMT'" font-size="24">Size</text>
	<text transform="matrix(1 0 0 1 -532.002 521.2561)" display="inline" font-family="'ArialMT'" font-size="19.2">Cannot be wider or taller than </text>
	<text transform="matrix(1 0 0 1 -532.002 549.2561)" display="inline" font-family="'ArialMT'" font-size="19.2">100px (artboard size)</text>
	<text transform="matrix(1 0 0 1 -532.002 589.2561)" display="inline" font-family="'ArialMT'" font-size="19.2">Scale your icon to fill as much of </text>
	<text transform="matrix(1 0 0 1 -532.002 613.2561)" display="inline" font-family="'ArialMT'" font-size="19.2">the artboard as possible</text>
	<rect x="-192" y="464" display="inline" fill="none" width="280" height="260"/>
	<text transform="matrix(1 0 0 1 -192.002 481.2561)" display="inline" font-family="'ArialMT'" font-size="24">Ungroup</text>
	<text transform="matrix(1 0 0 1 -192.002 521.2561)" display="inline" font-family="'ArialMT'" font-size="19.2">If your design has more than one </text>
	<text transform="matrix(1 0 0 1 -192.002 545.2561)" display="inline" font-family="'ArialMT'" font-size="19.2">shape, make sure to ungroup</text>
	<rect x="160" y="464" display="inline" fill="none" width="280" height="260"/>
	<text transform="matrix(1 0 0 1 159.998 481.2561)" display="inline" font-family="'ArialMT'" font-size="24">Save as</text>
	<text transform="matrix(1 0 0 1 159.998 521.2561)" display="inline" font-family="'ArialMT'" font-size="19.2">Save as .SVG and make sure </text>
	<text transform="matrix(1 0 0 1 159.998 545.2561)" display="inline" font-family="'ArialMT'" font-size="19.2">“Use Artboards” is checked</text>
	<text transform="matrix(1.0074 0 0 1 -444.3335 244.7483)" display="inline" font-family="'ArialMT'" font-size="20.5848">100px</text>
	<text transform="matrix(1.0074 0 0 1 232.0034 311.9983)" display="inline" font-family="'ArialMT'" font-size="41.1696">.SVG</text>
	<rect x="-452.112" y="278.52" display="inline" width="82.088" height="81.48"/>
	<rect x="-451.816" y="254.128" display="inline" width="4.176" height="18.695"/>
	<rect x="-374.496" y="254.128" display="inline" width="4.184" height="18.695"/>
	<rect x="-456" y="258.696" display="inline" width="89.864" height="4.576"/>
	<g display="inline">
		<rect x="-110.44" y="270.752" width="82.44" height="81.248"/>
		<rect x="-54.472" y="229.656" width="26.464" height="26.089"/>
	</g>
	<rect x="-868" y="180" display="inline" stroke="#FFFFFF" stroke-miterlimit="10" width="240" height="240"/>
	<rect x="-532" y="180" display="inline" stroke="#FFFFFF" stroke-miterlimit="10" width="240" height="240"/>
	<rect x="-188" y="180" display="inline" stroke="#FFFFFF" stroke-miterlimit="10" width="240" height="240"/>
	<rect x="164" y="180" display="inline" stroke="#FFFFFF" stroke-miterlimit="10" width="240" height="240"/>
</g>
<g display="none">
	<path display="inline" d="M686.016,623.448C684.352,578.64,816.977,149.272,1127.288,41.4
		c-132.76-66.376-300.36-38.16-384.984,23.232C492.904,324.039,632.48,582.207,686.016,623.448z"/>
	<path display="inline" d="M702.48,638.791c207.424,129.448,646.207-365.207,589.088-454.68
		c-29.864-58.08-91.528-105.832-142.168-132.607C1088.288,24.24,753.92,326.823,702.48,638.791z"/>
	<path display="inline" d="M713.672,87.04c-26.952,11.056-284.104,251.376-67.616,558.384c0,0,29.145,29.695,40.296,32.584
		c-0.615-23.641-1.439-30.04-1.64-39.336C664.048,629.079,468.304,370.168,713.672,87.04z"/>
	<path display="inline" d="M701.056,650.936c221.024,157.688,672.08-385,602.896-446.096c5.336,6.088,122.728,185.936,0.888,391.744
		c-132.976,224.615-486.088,194.071-601.088,93.447C696.568,670.256,698.816,665.768,701.056,650.936z"/>
	<path display="inline" d="M708.536,700.136l-0.296,7.832c285.72,213.872,543.136-21.088,558.488-57.04
		C1137.271,787.512,884.04,827.495,708.536,700.136z"/>
</g>
<g display="none">
	<path display="inline" d="M1027.624,687.312c16.896-50.704,135.208-194.36,211.256-219.712
		c33.808,84.504,76.056,236.616,50.704,261.968C1264.232,754.92,1069.872,704.216,1027.624,687.312z"/>
	<path display="inline" d="M1247.336,467.6c16.896-8.448,42.248-25.353,76.056,8.456c16.896,16.896,33.809,236.607-16.896,245.063
		C1306.496,678.864,1298.04,552.112,1247.336,467.6z"/>
	<path display="inline" d="M1149.016,289.32c-0.672,0.305-1.384,0.536-2.048,0.864c-5.08,2.496-9.872,5.521-13.808,9.04
		c-1.92,1.776-3.744,3.592-4.96,5.616c-3.448,0.624-6.761,1.271-11.056,3.584c-2.673-3.784-3.097-8.84-2.929-13.36
		c2.4-3.144,4.888-5.976,7.648-8.407c5.224-4.664,10.944-8.208,16.848-11.185c-7.192-9.424-15.048-19.208-23.408-29.2
		c-2.056,0.729-4.104,1.464-6.063,2.328c-5.008,2.192-9.76,4.832-13.616,7.96c-1.888,1.576-3.664,3.176-4.824,5
		c-3.344,0.353-6.592,0.736-10.888,2.88c-2.672-3.664-3.032-8.688-2.752-13.144c2.479-3,5.032-5.648,7.832-7.864
		c5.527-4.456,11.472-7.656,17.488-10.312c0.399-0.177,0.808-0.296,1.199-0.464c-8.384-9.656-17.264-19.456-26.432-29.28
		c-3.864,3.352-7.688,7.264-11.792,11.312l-6.76,6.504c-4.024,0.217-8.2,0.408-12.624-0.743c0.408-4.648,0.84-8.257,1.271-12.009
		c2.176-1.712,4.145-3.768,6.24-5.792c3.752-3.688,7.64-7.655,12.023-11.527c-10.056-10.473-20.487-20.896-31.144-31.185
		c-0.104,0.057-0.224,0.088-0.32,0.145c-4.464,2.359-8.319,5.384-11.208,8.992c-1.416,1.823-2.735,3.72-3.552,5.88
		c-3.271,1.096-6.439,2.552-10.536,4.888c-2.872-3.504-4.191-7.76-4.943-12.072c1.695-3.256,3.535-6.456,5.855-9.279
		c3.44-4.288,7.552-7.832,11.96-10.688c-10.399-9.728-20.983-19.232-31.664-28.448c-3.832,1.488-7.312,3.345-10.016,5.672
		c-1.864,1.641-3.504,3.376-4.48,5.488c-3.359,0.896-6.64,2.36-10.704,5.336c-2.983-3.672-4.144-8.696-4.184-13.68
		c2.296-3.8,5.12-7.248,8.376-9.977c2.208-1.88,4.552-3.392,6.937-4.76c-8.496-7.056-17.017-13.76-25.528-20.288
		c-3.896,2.112-7.664,4.448-11,7.232c-2.296,1.96-4.536,3.968-6.288,6.288c-3.84,0.672-7.52,1.456-12.296,3.04
		c-1.64-4.576-1.336-9.504-0.712-14.088c2.728-2.952,5.472-5.761,8.488-8.225c2.304-1.912,4.768-3.552,7.224-5.191
		c-6.568-4.784-13.097-9.288-19.592-13.656c-3.937,1.479-7.704,3.168-10.889,5.312c-2.079,1.448-4.04,2.944-5.392,4.744
		c-3.432,0.168-6.776,0.464-11.28,2.344c-2.312-3.983-2.264-9.071-1.552-13.6c2.784-2.904,5.672-5.456,8.768-7.504
		c1.168-0.776,2.353-1.464,3.536-2.144c-23.288-14.393-45.728-25.561-66.216-31.961c-110.552,54.929-157.023,85.208-253.504,245.057
		c16.896,59.151,59.152,236.615,346.464,371.815c16.904-76.056,126.761-211.256,261.968-270.408
		C1188.184,350.84,1173.296,322.92,1149.016,289.32z"/>
	<path display="inline" d="M1272.688,754.92C622,645.064,571.304,256.344,571.304,256.344S545.96,459.159,774.12,645.064
		C1010.729,830.968,1321.28,763.119,1272.688,754.92z"/>
	<path display="inline" d="M575.528,197.192C588.2,116.912,594.544,87.336,624.12,59.168c39.44-39.433,84.504-40.84,160.56-45.064
		C675.528,40.856,602.992,134.512,575.528,197.192z"/>
	<path display="inline" d="M850.168,19.728c19.176,9.616,37.176,19.433,54.288,29.36c3.528-1.656,7.096-3.008,10.68-4.152
		c6.521-2.056,13.097-3.408,19.704-4.328c3.313-0.456,6.624-0.792,9.977-1c3.496,2.36,6.863,4.776,9.912,8.248l-8.864,8.624
		c-2.904,0.176-5.816,0.473-8.704,0.864C932.439,58,927.8,59,923.296,60.248c6.544,4,12.976,8,19.224,12.023
		c1.881-1.016,3.721-2.128,5.672-3.008c7-3.112,14.433-5.376,22.297-6.352c3.936-0.473,7.976-0.616,12.08-0.272
		c3.863,2.888,7.304,6.208,9.399,10.592c-4.408,2-7.808,3.929-10.815,6.248c-2.784-0.231-5.696-0.144-8.616,0.208
		c-4.504,0.552-9.032,1.88-13.448,3.536c9.536,6.456,18.76,12.928,27.584,19.408c1.168-0.393,2.328-0.809,3.488-1.145
		c7.224-2.079,14.399-3.136,21.479-3.775c3.528-0.313,7.057-0.512,10.544-0.632c3.576,2.447,7.024,4.903,10.393,8.296
		c-3.368,3.384-6.664,5.92-9.824,8.6c-3.232,0.112-6.448,0.296-9.624,0.576c-3.088,0.271-6.144,0.656-9.128,1.152
		c10.976,8.52,21.488,17.023,31.28,25.487c3.239-1.168,6.527-2.136,9.823-2.888c3.2-0.728,6.425-1.28,9.648-1.688
		c3.528,2.145,6.855,4.4,9.96,7.681l-7.872,9.088c-2.208,0.28-4.392,0.688-6.544,1.144c10.104,9.208,19.568,18.345,28.376,27.336
		c1.977-1.048,4.008-2.008,6.16-2.783c3.432-1.24,7.023-2.072,10.607-2.473c3.864,2.145,7.2,4.672,9.889,8.288
		c-3.248,3.136-5.912,5.681-7.969,8.496c-2.168,0.248-4.248,0.769-6.287,1.464c10.296,11.112,19.735,22,28.207,32.504
		c0.561-0.151,1.121-0.344,1.688-0.496c3.144-0.783,6.32-1.447,9.544-1.968c3.632,2.008,7.168,4.128,10.336,7.368l-7.64,9.313
		c-0.808,0.128-1.616,0.344-2.424,0.495c7.439,9.849,14.12,19.336,20.071,28.336c2.696-0.911,5.416-1.783,8.208-2.455
		c3.393-0.809,6.864-1.433,10.448-1.792c3.816,2.199,7.488,4.663,10.256,8.392c-3.496,3.032-6.16,5.624-8.615,8.432
		c-2.681,0.265-5.433,0.752-8.16,1.4c-0.904,0.216-1.792,0.552-2.688,0.8c25.76,42,35.128,71.152,37.664,76.216
		c31.872-8.84,63.336-13.16,89.521,7.128C1158.776,62.52,879.752,12.856,850.168,19.728z"/>
</g>
<g display="none">
	<path display="inline" d="M799.528,738.911c-34.448-20.424-66.257-46.783-91.048-79.903
		c-24.673-33.072-40.593-73.849-43.744-115.88c-3.112-42.12,5.527-83.921,19.88-122.368l0.399-1.08l0.736-1.264
		c16.464-28.425,37.12-55.297,63.128-77.104c13.008-10.832,27.224-20.448,42.464-28.136c15.272-7.601,31.424-13.353,47.872-17.32
		c32.977-7.88,66.776-8.632,99.336-5.296c32.616,3.641,64.168,11.128,94.849,20.224c61.392,18.305,119.096,44.288,177.447,65.336
		c14.624,5.137,29.353,9.696,44.152,13.208c14.776,3.36,29.92,5.608,44.288,3.528c7.144-1.072,14.048-3.2,20.128-6.984
		c6.088-3.752,11.184-9.168,15.168-15.495c6.28-10.072,8.16-30.576,7.225-33.912C1312.816,150.424,1156.8,7.896,962.632,7.896
		c-214.672,0-388.696,174.024-388.696,388.696c0,187.976,133.44,344.775,310.761,380.863c-10.704-3.439-21.288-7.319-31.681-11.688
		C834.64,758.159,816.712,749.264,799.528,738.911z"/>
	<path display="inline" d="M1347.648,343.703c-0.952,10.072-3.129,20.12-7.561,29.688c-3.552,7.424-8.712,14.432-15.479,19.776
		c-6.769,5.327-14.816,9.016-23.064,10.991c-16.608,3.992-33.352,2.937-49.399,0.872c-16.121-2.111-31.744-5.936-47.145-10.056
		c-30.784-8.328-60.72-18.336-90.472-28.168c-29.752-9.808-59.528-18.904-89.313-26.872c-29.8-7.816-59.88-13.864-89.855-16.232
		c-29.896-2.743-59.832-1.592-87.984,5.473c-28.104,7.136-54.2,20.184-76.624,38.527c-22.168,18.16-40.528,41.28-55.729,66.616
		c-13.911,34.344-22.384,70.809-20.855,107.104c0.944,36.792,12.808,72.943,33.344,104.392c20.2,31.776,48.464,58.656,79.576,81.664
		c28.528,20.56,60.52,33.928,93.296,48.192c19.656,7.168,40.696,9.615,62.24,9.615c214.672,0,388.696-174.023,388.696-388.695
		C1351.328,378.64,1350,361.008,1347.648,343.703z"/>
</g>
<g>
	<g>
		<path fill="#FFFFFF" d="M985,500c0,13.807-11.193,25-25,25c-13.807,0-25-11.193-25-25c0-13.807,11.193-25,25-25
			C973.807,475,985,486.193,985,500z M953.195,523.596l0.599-0.043c0.267-0.016,0.514-0.008,0.521-0.008
			c0.289,0.025,0.513-0.207,0.522-0.486c0.01-0.278-0.208-0.513-0.486-0.522c0,0.001-0.296-0.011-0.625,0.009l-0.604,0.043
			c-0.278,0.02-0.488,0.262-0.468,0.54c0.019,0.267,0.24,0.47,0.503,0.47C953.171,523.598,953.183,523.596,953.195,523.596z
			 M950.663,521.867l0.698-0.097c0.329-0.047,0.634-0.075,0.638-0.076c0.277-0.026,0.481-0.272,0.456-0.55s-0.268-0.484-0.55-0.455
			c0,0-0.33,0.03-0.684,0.08l-0.696,0.097c-0.276,0.038-0.469,0.294-0.431,0.569c0.036,0.253,0.251,0.436,0.5,0.436
			C950.616,521.872,950.64,521.871,950.663,521.867z M948.797,521.489c0-0.021-0.001-0.034-0.005-0.057
			c-0.005-0.035-0.041-0.285-0.048-0.577c-0.014-0.316-0.007-0.601-0.007-0.604c0.005-0.234-0.181-0.352-0.414-0.352
			c-0.004,0-0.007,0-0.01,0c-0.23,0-0.419,0.102-0.424,0.333c0,0-0.007,0.272,0.007,0.612c0.018,0.638,0.029,1.059,0.478,1.059
			C948.606,521.904,948.797,521.724,948.797,521.489z M948.53,519.732l1.394-0.208c0.248-0.037,0.418-0.268,0.381-0.516
			s-0.271-0.416-0.515-0.381l-1.394,0.207c-0.248,0.038-0.418,0.269-0.382,0.517c0.033,0.225,0.227,0.386,0.448,0.386
			C948.485,519.737,948.507,519.735,948.53,519.732z M946.841,519.853c0-0.005,0.045-0.384,0.115-0.763
			c0.075-0.389,0.179-0.778,0.18-0.783c0.066-0.249-0.1-0.5-0.371-0.562c-0.271-0.062-0.544,0.092-0.61,0.341
			c0,0-0.112,0.422-0.193,0.846c-0.076,0.412-0.124,0.82-0.124,0.82c-0.03,0.256,0.17,0.484,0.448,0.512
			c0.019,0.002,0.037,0.003,0.055,0.003C946.594,520.268,946.813,520.091,946.841,519.853z M946.232,517.594l1.751-0.203
			c0.277-0.031,0.476-0.282,0.444-0.561c-0.032-0.276-0.286-0.479-0.56-0.443l-1.751,0.203c-0.277,0.031-0.476,0.283-0.444,0.561
			c0.03,0.257,0.248,0.447,0.501,0.447C946.193,517.598,946.212,517.596,946.232,517.594z M944.46,515.307l0.988-0.137
			c0.488-0.012,0.965-0.162,0.965-0.162c0.278-0.02,0.488-0.258,0.468-0.535c-0.02-0.279-0.263-0.486-0.54-0.461
			c0,0-0.455,0.046-0.917,0.058l-0.986,0.048c-0.279,0.006-0.5,0.296-0.496,0.574c0.006,0.276,0.231,0.615,0.505,0.615
			C944.453,515.307,944.457,515.307,944.46,515.307z M941.854,514.762c0.002-0.004,0.249-0.417,0.517-0.807
			c0.265-0.389,0.558-0.764,0.561-0.768c0.159-0.203,0.122-0.495-0.083-0.652c-0.204-0.158-0.499-0.121-0.658,0.082
			c-0.013,0.016-0.316,0.403-0.597,0.816c-0.285,0.414-0.538,0.84-0.549,0.858c-0.131,0.221-0.057,0.505,0.166,0.636
			c0.075,0.043,0.157,0.064,0.237,0.064C941.61,514.991,941.766,514.909,941.854,514.762z M944.481,518.092
			c0-0.004,0.073-0.477,0.173-0.934c0.097-0.456,0.225-0.908,0.227-0.913c0.069-0.245-0.07-0.504-0.312-0.578
			c-0.242-0.075-0.494,0.063-0.563,0.308c-0.006,0.02-0.139,0.487-0.242,0.971c-0.106,0.486-0.18,0.973-0.183,0.993
			c-0.038,0.251,0.132,0.491,0.381,0.532c0.083,0.016,0.165,0.006,0.238-0.023C944.345,518.391,944.457,518.26,944.481,518.092z
			 M945.757,512.15c0.013-0.278-0.203-0.638-0.481-0.649c-0.004,0-0.493-0.02-1.001-0.064c-0.494-0.049-1.014-0.117-1.018-0.118
			c-0.278-0.036-0.532,0.167-0.573,0.442c-0.04,0.275,0.15,0.563,0.427,0.604c0,0,0.546,0.144,1.069,0.195
			c0.538,0.048,1.05,0.196,1.05,0.196c0.008,0,0.016,0,0.023,0C945.521,512.755,945.745,512.421,945.757,512.15z M940.442,511.541
			l0.241-0.25c0.141-0.145,0.328-0.332,0.542-0.521c0.409-0.37,0.845-0.71,0.85-0.714c0.22-0.17,0.26-0.488,0.089-0.708
			c-0.171-0.221-0.489-0.261-0.708-0.089c-0.02,0.014-0.47,0.365-0.904,0.758c-0.229,0.203-0.434,0.408-0.592,0.569l-0.244,0.254
			c-0.193,0.201-0.187,0.521,0.014,0.714c0.098,0.094,0.224,0.141,0.35,0.141C940.21,511.697,940.343,511.645,940.442,511.541z
			 M945.119,509.559c0.058-0.273-0.116-0.542-0.389-0.6c0,0-0.502-0.107-1.026-0.252c-0.261-0.071-0.527-0.15-0.715-0.209
			l-0.331-0.113c-0.264-0.091-0.551,0.051-0.641,0.314c-0.09,0.265,0.052,0.552,0.315,0.642l0.34,0.116
			c0.21,0.066,0.49,0.149,0.763,0.225c0.553,0.152,1.083,0.266,1.083,0.266c0.036,0.008,0.071,0.011,0.106,0.011
			C944.858,509.959,945.068,509.796,945.119,509.559z M939.696,507.999c0.005-0.003,0.504-0.315,1.006-0.579
			c0.254-0.135,0.5-0.26,0.698-0.348l0.349-0.152c0.255-0.111,0.372-0.41,0.261-0.666c-0.112-0.256-0.411-0.372-0.666-0.26
			l-0.35,0.152c-0.219,0.097-0.486,0.232-0.762,0.379c-0.538,0.281-1.051,0.604-1.073,0.618c-0.236,0.148-0.307,0.46-0.159,0.696
			c0.096,0.152,0.26,0.236,0.428,0.236C939.52,508.076,939.613,508.051,939.696,507.999z M945.012,507.129
			c0.113-0.256-0.002-0.554-0.258-0.666l-0.315-0.141c-0.184-0.086-0.43-0.207-0.68-0.338c-0.488-0.253-0.992-0.557-0.997-0.56
			c-0.238-0.144-0.549-0.067-0.693,0.171c-0.144,0.24-0.067,0.551,0.171,0.693c0.021,0.014,0.536,0.324,1.052,0.591
			c0.262,0.138,0.521,0.265,0.727,0.361l0.327,0.145c0.066,0.029,0.136,0.044,0.204,0.044
			C944.743,507.43,944.929,507.318,945.012,507.129z M939.813,504.348l0.364-0.113c0.212-0.064,0.513-0.139,0.805-0.207
			c0.587-0.139,1.181-0.236,1.188-0.237c0.275-0.044,0.461-0.304,0.417-0.58c-0.045-0.274-0.304-0.467-0.581-0.416
			c-0.025,0.004-0.633,0.104-1.254,0.249c-0.315,0.074-0.639,0.154-0.872,0.225l-0.368,0.115c-0.266,0.083-0.415,0.366-0.332,0.632
			c0.067,0.217,0.267,0.354,0.482,0.354C939.711,504.37,939.762,504.364,939.813,504.348z M945.452,504.756
			c0.163-0.227,0.112-0.542-0.114-0.705c-0.005-0.004-0.466-0.337-0.92-0.711c-0.229-0.188-0.459-0.383-0.62-0.526l-0.277-0.257
			c-0.204-0.189-0.523-0.178-0.714,0.026c-0.19,0.204-0.178,0.524,0.026,0.714l0.286,0.266c0.178,0.157,0.419,0.363,0.659,0.56
			c0.477,0.393,0.95,0.733,0.969,0.748c0.089,0.065,0.193,0.097,0.295,0.097C945.198,504.965,945.353,504.893,945.452,504.756z
			 M940.751,500.858c0.007,0,0.642-0.043,1.259-0.051c0.615-0.012,1.231,0.014,1.237,0.016c0.282,0.005,0.514-0.205,0.525-0.484
			c0.011-0.279-0.205-0.514-0.483-0.526c-0.026-0.001-0.65-0.028-1.293-0.016c-0.645,0.007-1.287,0.051-1.314,0.053
			c-0.278,0.019-0.488,0.26-0.469,0.538c0.018,0.267,0.24,0.472,0.503,0.472C940.728,500.86,940.74,500.858,940.751,500.858z
			 M946.381,502.455c0.204-0.191,0.214-0.51,0.023-0.713c-0.003-0.004-0.411-0.438-0.808-0.91c-0.388-0.456-0.748-0.944-0.752-0.948
			c-0.085-0.116-0.216-0.19-0.358-0.204c-0.145-0.013-0.285,0.034-0.391,0.131c-0.389,0.359-0.151,0.638,0.731,1.673
			c0.41,0.486,0.824,0.93,0.842,0.948c0.099,0.105,0.233,0.159,0.368,0.159C946.16,502.592,946.284,502.547,946.381,502.455z
			 M945.524,497.76c0.074-0.27-0.085-0.547-0.354-0.62l-0.4-0.108c-0.24-0.061-0.564-0.136-0.894-0.202
			c-0.33-0.066-0.665-0.123-0.926-0.162l-0.411-0.056c-0.275-0.038-0.531,0.156-0.569,0.432c-0.038,0.276,0.156,0.531,0.432,0.569
			l0.405,0.055c0.24,0.036,0.558,0.089,0.871,0.152c0.312,0.062,0.617,0.133,0.835,0.188l0.391,0.106
			c0.045,0.012,0.09,0.018,0.133,0.018C945.26,498.132,945.464,497.984,945.524,497.76z M947.667,500.429
			c0.234-0.151,0.301-0.464,0.15-0.699c-0.003-0.005-0.331-0.514-0.604-1.039c-0.279-0.523-0.528-1.101-0.531-1.107
			c-0.11-0.256-0.407-0.375-0.663-0.265s-0.375,0.407-0.265,0.663c0.011,0.025,0.268,0.622,0.565,1.179
			c0.292,0.563,0.635,1.094,0.649,1.117c0.097,0.15,0.259,0.232,0.425,0.232C947.487,500.51,947.582,500.483,947.667,500.429z
			 M947.898,495.75c0.149-0.235,0.08-0.547-0.155-0.697c-0.023-0.015-0.571-0.362-1.177-0.675c-0.37-0.194-0.701-0.342-0.87-0.415
			l-0.386-0.163c-0.256-0.108-0.553,0.012-0.662,0.269c-0.108,0.257,0.012,0.553,0.269,0.662l0.383,0.161
			c0.257,0.111,0.547,0.249,0.798,0.382c0.568,0.293,1.096,0.627,1.102,0.631c0.084,0.053,0.178,0.079,0.27,0.079
			C947.638,495.985,947.802,495.902,947.898,495.75z M949.238,498.931c0.266-0.084,0.413-0.369,0.329-0.634
			c-0.001-0.006-0.182-0.576-0.305-1.168c-0.122-0.578-0.195-1.203-0.195-1.208c-0.032-0.277-0.286-0.475-0.56-0.444
			c-0.277,0.032-0.476,0.282-0.444,0.56c0.003,0.027,0.079,0.676,0.21,1.3c0.133,0.641,0.323,1.242,0.331,1.267
			c0.068,0.215,0.267,0.352,0.481,0.352C949.136,498.955,949.188,498.947,949.238,498.931z M950.753,494.506
			c0.21-0.184,0.231-0.503,0.047-0.712c-0.018-0.021-0.445-0.507-0.932-0.981c-0.487-0.482-1.016-0.908-1.038-0.926
			c-0.218-0.175-0.535-0.14-0.71,0.078s-0.14,0.535,0.077,0.71c0.005,0.004,0.511,0.412,0.963,0.859
			c0.46,0.448,0.875,0.921,0.879,0.926c0.1,0.114,0.24,0.172,0.38,0.172C950.539,494.631,950.658,494.59,950.753,494.506z
			 M951.136,497.959c0.279,0,0.503-0.241,0.501-0.519c0-0.006-0.003-0.624,0.045-1.232c0.05-0.596,0.149-1.217,0.15-1.223
			c0.023-0.143-0.016-0.288-0.107-0.4c-0.091-0.112-0.226-0.178-0.371-0.185c-0.536-0.025-0.565,0.351-0.68,1.732
			c-0.052,0.655-0.048,1.289-0.048,1.315c0.002,0.278,0.228,0.512,0.505,0.512C951.134,497.959,951.135,497.959,951.136,497.959z
			 M953.829,494.008c0.245-0.134,0.336-0.44,0.202-0.686c-0.013-0.023-0.318-0.584-0.67-1.154c-0.35-0.563-0.738-1.104-0.754-1.126
			c-0.162-0.227-0.479-0.278-0.705-0.117c-0.227,0.163-0.278,0.478-0.116,0.705c0.003,0.006,0.385,0.538,0.716,1.071
			c0.337,0.545,0.639,1.1,0.642,1.105c0.092,0.168,0.265,0.264,0.444,0.264C953.67,494.069,953.752,494.049,953.829,494.008z
			 M954.025,497.041c0.001-0.006,0.155-0.6,0.346-1.187c0.186-0.582,0.415-1.158,0.417-1.164c0.103-0.259-0.023-0.553-0.283-0.656
			c-0.259-0.104-0.553,0.024-0.656,0.283c-0.01,0.025-0.244,0.614-0.44,1.228c-0.2,0.616-0.355,1.219-0.362,1.244
			c-0.07,0.271,0.093,0.545,0.363,0.615c0.042,0.011,0.084,0.017,0.126,0.017C953.761,497.42,953.966,497.269,954.025,497.041z
			 M956.86,494.096c0.242-0.042,0.419-0.251,0.419-0.497c0-0.181-0.416-1.189-0.499-1.386c-0.247-0.604-0.523-1.212-0.523-1.212
			c-0.115-0.253-0.415-0.365-0.669-0.251c-0.254,0.115-0.366,0.415-0.251,0.669c0.001,0.002,0.269,0.591,0.509,1.18
			c0.24,0.575,0.449,1.162,0.451,1.167c0.073,0.205,0.265,0.337,0.477,0.337C956.802,494.103,956.831,494.101,956.86,494.096z
			 M956.659,497.041c0.035-0.075,0.279-0.586,0.545-1.094c0.262-0.503,0.544-0.995,0.589-1.073c0.09-0.156,0.096-0.36,0.005-0.515
			l-0.437,0.253l-0.001,0l-0.442-0.242c-0.046,0.081-0.339,0.589-0.609,1.108c-0.617,1.174-0.617,1.25-0.617,1.356
			c0,0.279,0.226,0.505,0.505,0.505C956.402,497.341,956.58,497.217,956.659,497.041z M960.041,494.523
			c0.269-0.074,0.427-0.352,0.354-0.621l-0.33-1.205c-0.172-0.617-0.369-1.231-0.369-1.231c-0.085-0.266-0.369-0.413-0.635-0.328
			c-0.266,0.085-0.412,0.37-0.327,0.635c0,0.003,0.191,0.598,0.357,1.193l0.329,1.203c0.062,0.225,0.265,0.372,0.487,0.372
			C959.952,494.541,959.997,494.535,960.041,494.523z M959.427,497.374c0.002-0.002,0.33-0.515,0.674-1.014
			c0.31-0.449,0.632-0.889,0.692-0.973c0.113-0.153,0.139-0.372,0.053-0.542l-0.451,0.23l-0.417-0.284
			c-0.063,0.085-0.392,0.536-0.708,0.995c-0.355,0.515-0.693,1.043-0.693,1.043c-0.15,0.235-0.082,0.547,0.153,0.697
			c0.084,0.054,0.179,0.08,0.271,0.08C959.168,497.607,959.331,497.525,959.427,497.374z M963.078,495.238
			c0.272-0.057,0.447-0.325,0.391-0.598l-0.515-2.381c-0.061-0.272-0.331-0.446-0.603-0.383c-0.273,0.061-0.444,0.33-0.385,0.603
			l0.513,2.37c0.05,0.238,0.26,0.402,0.494,0.402C963.008,495.248,963.043,495.244,963.078,495.238z M962.277,497.919
			c0.002-0.002,0.369-0.468,0.742-0.916l0.77-0.905c0.181-0.213,0.154-0.532-0.059-0.712c-0.211-0.181-0.529-0.155-0.711,0.058
			l-0.772,0.909c-0.386,0.462-0.763,0.941-0.763,0.941c-0.173,0.219-0.135,0.537,0.084,0.709c0.093,0.073,0.203,0.108,0.312,0.108
			C962.03,498.112,962.178,498.046,962.277,497.919z M966.073,496.122c0.274-0.05,0.457-0.313,0.406-0.588l-0.417-2.287
			c-0.05-0.275-0.311-0.456-0.587-0.406c-0.274,0.05-0.456,0.313-0.406,0.588l0.417,2.287c0.045,0.244,0.256,0.414,0.496,0.414
			C966.012,496.13,966.043,496.127,966.073,496.122z M965.173,498.618l1.572-1.644c0.195-0.2,0.19-0.52-0.009-0.714
			c-0.2-0.195-0.52-0.19-0.715,0.009l-1.585,1.658c-0.19,0.203-0.181,0.523,0.022,0.714c0.098,0.091,0.223,0.137,0.346,0.137
			C964.939,498.778,965.073,498.724,965.173,498.618z M969.037,497.111c0.275-0.049,0.458-0.312,0.409-0.586l-0.386-2.164
			c-0.05-0.274-0.313-0.457-0.586-0.409c-0.274,0.049-0.457,0.311-0.408,0.585l0.386,2.165c0.044,0.244,0.257,0.416,0.497,0.416
			C968.979,497.118,969.008,497.116,969.037,497.111z M972.031,497.914c0.256-0.045,0.426-0.29,0.381-0.546l-0.359-2.016
			c-0.046-0.256-0.291-0.425-0.545-0.381c-0.257,0.045-0.427,0.29-0.381,0.546l0.359,2.016c0.041,0.228,0.239,0.388,0.463,0.388
			C971.977,497.922,972.004,497.919,972.031,497.914z M968.112,499.398l1.575-1.466c0.205-0.188,0.221-0.508,0.031-0.713
			c-0.188-0.207-0.509-0.22-0.713-0.032l-1.588,1.478c-0.203,0.192-0.211,0.511-0.02,0.714c0.1,0.105,0.232,0.158,0.367,0.158
			C967.89,499.536,968.015,499.49,968.112,499.398z M971.174,500.418l1.574-1.466c0.206-0.188,0.221-0.508,0.032-0.713
			c-0.188-0.207-0.509-0.22-0.714-0.032l-1.588,1.478c-0.202,0.192-0.211,0.511-0.02,0.714c0.1,0.105,0.233,0.158,0.367,0.158
			C970.951,500.557,971.076,500.51,971.174,500.418z M974.977,499.152c0.267-0.083,0.415-0.366,0.332-0.632
			c0-0.003-0.131-0.425-0.25-0.864l-0.238-0.919c-0.07-0.27-0.346-0.432-0.615-0.362c-0.271,0.07-0.434,0.345-0.363,0.616
			l0.24,0.925c0.125,0.464,0.263,0.906,0.263,0.906c0.067,0.216,0.267,0.355,0.482,0.355
			C974.877,499.175,974.928,499.168,974.977,499.152z M974.148,501.491l1.453-1.13c0.222-0.17,0.264-0.487,0.094-0.708
			c-0.169-0.222-0.485-0.263-0.707-0.094l-1.466,1.139c-0.22,0.174-0.257,0.49-0.083,0.71c0.099,0.126,0.246,0.192,0.396,0.192
			C973.945,501.6,974.056,501.565,974.148,501.491z M977.309,501.614l1.336-1.004c0.223-0.167,0.268-0.484,0.101-0.707
			c-0.169-0.223-0.483-0.268-0.708-0.1l-1.336,1.002c-0.223,0.168-0.268,0.484-0.101,0.708c0.1,0.132,0.251,0.202,0.404,0.202
			C977.111,501.715,977.217,501.682,977.309,501.614z M981.314,499.58l-0.002-0.212l-0.148-0.148
			c-0.038-0.039-0.24-0.243-0.424-0.489c-0.18-0.229-0.347-0.5-0.378-0.553c-0.117-0.193-0.351-0.288-0.569-0.227
			c-0.152,0.042-0.275,0.155-0.333,0.302s-0.043,0.314,0.039,0.449c0.052,0.085,0.237,0.385,0.439,0.643
			c0.212,0.283,0.444,0.521,0.513,0.589c0.092,0.092,0.219,0.149,0.358,0.149C981.089,500.085,981.314,499.859,981.314,499.58z
			 M978.254,499.07l-0.003-0.212l-0.147-0.148c-0.039-0.039-0.241-0.243-0.424-0.489c-0.181-0.229-0.348-0.5-0.379-0.553
			c-0.117-0.193-0.35-0.288-0.569-0.227c-0.151,0.042-0.274,0.155-0.333,0.302c-0.058,0.147-0.043,0.314,0.039,0.449
			c0.053,0.085,0.237,0.385,0.439,0.643c0.212,0.283,0.443,0.521,0.512,0.589c0.092,0.092,0.22,0.149,0.359,0.149
			C978.027,499.575,978.254,499.349,978.254,499.07z M980.689,501.848l0.598-0.511c0.148-0.126,0.293-0.263,0.396-0.36l0.16-0.153
			c0.201-0.192,0.209-0.512,0.018-0.714c-0.193-0.202-0.514-0.21-0.715-0.018l-0.158,0.151c-0.093,0.088-0.223,0.21-0.359,0.327
			l-0.584,0.499c-0.215,0.179-0.244,0.497-0.066,0.712c0.1,0.119,0.244,0.182,0.389,0.182
			C980.48,501.964,980.596,501.925,980.689,501.848z M984.385,500.937l0.103-0.272c0.04-0.148,0.088-0.338,0.132-0.539
			c0.021-0.135,0.034-0.268,0.043-0.379l0.01-0.097c0.02-0.16,0.011-0.278,0.008-0.311c-0.029-0.273-0.271-0.471-0.547-0.444
			c-0.273,0.024-0.479,0.268-0.459,0.542c0.001,0.012,0.002,0.043-0.005,0.095l-0.012,0.127c-0.008,0.088-0.016,0.192-0.029,0.273
			c-0.032,0.149-0.073,0.311-0.108,0.442l-0.076,0.2c-0.1,0.26,0.03,0.553,0.29,0.652c0.06,0.023,0.12,0.033,0.181,0.033
			C984.117,501.262,984.309,501.138,984.385,500.937z M981.928,498.617c0.011,0.008,0.245,0.2,0.543,0.369
			c0.27,0.134,0.553,0.226,0.564,0.23c0.267,0.086,0.551-0.061,0.636-0.326c0.087-0.265-0.06-0.55-0.325-0.636
			c-0.002,0-0.225-0.074-0.399-0.159c-0.197-0.113-0.38-0.26-0.382-0.262c-0.216-0.175-0.534-0.143-0.71,0.074
			c-0.067,0.083-0.104,0.181-0.112,0.279C981.73,498.346,981.795,498.509,981.928,498.617z"/>
	</g>
</g>
<g display="none">
	<path display="inline" d="M1319,488c0,96-162.176,177-361,177s-360-81-360-177l1-192c0-88,160.672-146,359.504-146
		C1157.32,150,1318,208,1318,296L1319,488z M613.855,289.736c3.625,3.96,9.793,8.792,17.929,14.88
		c4.264,2.672,8.983,5.641,14.12,8.864c5.279,2.976,11.136,5.928,17.336,9.232c6.376,2.88,13.168,6.023,20.416,9.088
		c7.359,2.735,15.048,5.888,23.264,8.479c16.384,5.384,34.344,10.696,53.664,14.809c19.248,4.447,39.76,8.104,61.072,11.144
		c21.336,2.736,43.432,5.512,65.992,6.776c22.535,1.607,45.479,2.191,68.424,2.479c22.943-0.224,45.896-0.72,68.432-2.296
		c22.561-1.191,44.664-3.936,66.008-6.607c21.313-3.08,41.84-6.608,61.097-11.104c19.312-4.104,37.271-9.456,53.663-14.832
		c8.185-2.704,15.896-5.776,23.257-8.52c7.191-3.232,14.048-6.177,20.359-9.225c6.192-3.336,12.097-6.208,17.305-9.312
		c5.136-3.256,9.896-6.145,14.071-8.928c8.088-6.032,14.232-10.944,17.881-14.929C1301.96,286,1304,284,1304,284
		s-2.232,1.768-6.432,5.088c-2.168,1.552-4.488,3.904-7.84,5.848c-3.24,2.072-6.969,4.448-11.152,7.104
		c-4.32,2.416-9.225,4.872-14.48,7.656c-5.336,2.632-11.367,4.984-17.64,7.76c-6.416,2.488-13.36,4.841-20.608,7.44
		c-7.432,2.128-15.08,4.808-23.271,6.968c-16.384,4.313-34.232,8.544-53.368,11.912c-19.072,3.648-39.432,6.176-60.456,8.832
		c-21.088,2.232-42.928,4-65.168,5.168c-22.224,1.376-44.872,1.648-67.496,1.729c-45.264,0.048-90.504-2.648-132.664-7.208
		c-21.031-2.616-41.376-5.24-60.456-8.856c-4.775-0.888-9.479-1.768-14.12-2.632c-4.6-1.016-9.136-2.016-13.592-3
		c-8.976-1.776-17.456-4.168-25.664-6.264c-8.231-2.04-15.84-4.824-23.296-6.921c-7.312-2.439-14.176-4.983-20.664-7.319
		c-6.288-2.752-12.264-5.185-17.672-7.696c-5.28-2.76-10.136-5.304-14.512-7.592c-8.216-5.328-15.032-9.28-19.017-12.904
		C610.24,285.768,608,284,608,284S610.04,286,613.855,289.736z M606,326l12-9 M620.4,320.199L615.6,313.8l-12,9l4.801,6.399
		L620.4,320.199z M607.504,349.312l26-19.624 M635.912,332.88l-4.824-6.385l-26,19.624l4.824,6.385L635.912,332.88z M607,372.384
		l42.072-34.072 M651.584,341.424l-5.032-6.225l-42.063,34.08l5.031,6.216L651.584,341.424z M604.336,472.392L713.88,364
		 M716.696,366.84l-5.624-5.688L601.52,469.544l5.625,5.688L716.696,366.84z M604.336,504.392L735.528,373 M738.36,375.831
		l-5.664-5.655L601.504,501.56l5.664,5.656L738.36,375.831z M623,534.064L772.704,383 M775.544,385.816l-5.68-5.632L620.16,531.247
		l5.68,5.624L775.544,385.816z M643,560.871L814,391 M816.824,393.831l-5.641-5.672l-171.008,169.88l5.641,5.673L816.824,393.831z
		 M677.648,584.495L862.056,396.56 M864.912,399.36l-5.712-5.6L674.792,581.696l5.712,5.608L864.912,399.36z M713,603.6
		l185.664-206.264 M901.64,400.008l-5.943-5.353L710.024,600.92l5.943,5.359L901.64,400.008z M755.296,621l196.088-220.337
		 M954.368,403.327l-5.977-5.319L752.304,618.344l5.977,5.312L954.368,403.327z M816,627l189.336-224.337 M1008.392,405.247
		l-6.111-5.159L812.944,624.424l6.12,5.16L1008.392,405.247z M870,636l187-233 M1060.12,405.504l-6.232-5.009L866.88,633.504l6.24,5
		L1060.12,405.504z M921,639l177-241 M1101.224,400.367l-6.456-4.735l-176.991,241l6.447,4.735L1101.224,400.367z M972,644l196-262
		 M1171.2,384.392l-6.4-4.784L968.8,641.6l6.408,4.8L1171.2,384.392z M1025,639l208-281 M1236.216,360.376l-6.439-4.761l-208,281
		l6.439,4.769L1236.216,360.376z M1076,639l222-313.225 M1301.264,328.088l-6.527-4.624l-222,313.224l6.527,4.624L1301.264,328.088z
		 M1153,613l150-242 M1306.4,373.104l-6.801-4.208l-150,241.992l6.801,4.216L1306.4,373.104z M1217,584l86-160 M1306.52,425.888
		l-7.048-3.784l-86,160l7.048,3.784L1306.52,425.888z M1273,551l33-78 M1309.688,474.552l-7.375-3.112l-33,78l7.375,3.112
		L1309.688,474.552z M606.336,403.272L665.88,348 M668.608,350.936l-5.448-5.864l-59.544,55.272l5.448,5.863L668.608,350.936z
		 M607,436.056L689.88,356 M692.664,358.88l-5.552-5.761l-82.889,80.057l5.553,5.752L692.664,358.88z"/>
</g>
</svg>
