<svg version="1.1" xmlns="http://www.w3.org/2000/svg" xmlns:xlink="http://www.w3.org/1999/xlink" x="0px" y="0px"
	 width="100%" viewBox="935 475 50 50">
<g>
	<path fill="#FFF" d="M945.951,494.581c0.106,0.212,0.319,0.532,0.425,0.744c0.638,1.063,1.701,2.552,2.977,3.083
		c0.744,0.319,1.914,0.319,2.445-0.531c0.532-0.744,0.532-2.126,0.425-3.402c-0.106-1.488-0.319-3.402-0.638-5.528
		C949.671,490.328,947.333,492.348,945.951,494.581z"/>
	<path fill="#FFF" d="M983.799,486.926c-0.744-1.276-1.914-2.232-3.083-2.764c0.212,7.229-0.744,13.927-2.658,18.818
		l-2.977-1.169c2.02-5.21,2.87-12.865,2.232-21.051c-1.382-2.02-3.615-3.296-5.848-3.189c0.744,3.508,0.851,6.91,0.851,10.525v0.319
		c0,2.445,0,5.209-0.638,7.868c-0.213,0.851-0.531,1.701-0.851,2.445l-3.083-1.169c0.318-0.745,0.531-1.489,0.744-2.233
		c0.638-2.232,0.531-4.678,0.531-7.017v-0.319c0-4.253,0-7.974-1.382-12.014c-1.701-0.851-3.721-0.745-5.315,0.212
		c1.807,6.167,2.445,16.373,1.807,19.243l-3.189-0.851c0.744-2.764-0.425-14.353-2.232-18.924c-0.532-0.212-1.063-0.425-1.595-0.638
		c-1.488-0.319-2.977-0.212-4.253,0.851c-0.212,0.212-0.531,0.532-0.638,0.744c1.488,4.997,2.871,13.077,3.083,17.436
		c0.106,1.914,0.106,3.721-0.957,5.316c-0.957,1.489-2.552,2.233-4.253,2.233c-0.744,0-1.488-0.106-2.232-0.531
		c-2.126-0.958-3.508-2.978-4.359-4.359c-0.319-0.425-0.532-0.957-0.851-1.382c-0.638-1.063-1.276-2.126-1.914-2.977l-0.319-0.425
		c-1.063-1.276-2.02-2.126-2.871-2.445c-1.701,1.488-2.552,4.146-2.552,6.591c0,2.764,0.957,5.422,2.126,7.974
		c2.658,6.484,6.485,12.014,11.375,15.841c4.891,3.827,10.951,5.847,16.904,5.103c5.953-0.85,11.588-4.678,14.565-10.525
		c0.744-1.594,1.382-3.189,1.913-4.891c1.595-4.996,2.765-10.099,3.083-15.415C985.074,491.604,984.968,489.052,983.799,486.926z"/>
	<path fill="#FFF" d="M942.974,490.222l0.319,0.319c0.213,0.425,0.532,0.744,0.745,1.063c2.232-2.977,5.422-5.209,6.91-6.166
		c-0.319-1.488-0.638-2.977-0.957-4.359c-3.189,1.063-6.06,2.977-8.505,5.528c-0.319,0.425-0.744,0.851-1.063,1.169
		C941.592,488.521,942.442,489.584,942.974,490.222z"/>
</g>
</svg>
