<svg version="1.1" xmlns="http://www.w3.org/2000/svg" xmlns:xlink="http://www.w3.org/1999/xlink" x="0px" y="0px"
	 width="100%" viewBox="0 0 50 46.586">
<g>
	<g>
		<path fill="#FFF" d="M23.881,4.718c-2.109,0.811-3.245,2.271-5.516,1.298c0.324-0.162,1.135-0.812,1.46-1.298
			c0.324-0.162,1.46,0.162,1.46,0.162c0.162,0,0.486-0.324,0.486-0.648c0.162,0.162,0,0.648-0.162,0.648
			C21.609,4.88,22.258,5.042,23.881,4.718z M21.771,5.366c-0.648-0.324-1.136-0.486-1.784-0.324
			c-0.162,0.162-0.487,0.486-0.649,0.649c0,0,0.649,0.324,1.298,0.162C21.447,5.528,21.771,5.366,21.771,5.366z"/>
	</g>
	<g>
		<path fill="#FFF" d="M30.531,4.556l-1.622,1.136v0.973l-0.648-0.486l-0.649,0.811c0,0,0.486,0,0.649,0c0-0.162,0-0.486,0-0.486
			s0.324,0.486,0.486,0.486s1.46-1.135,1.784-1.297c0.324-0.163,0.648,0,0.648,0C31.342,5.691,31.018,4.88,30.531,4.556z"/>
	</g>
	<g>
		<path fill="#FFF" d="M13.336,30.023c1.136-1.136,3.082-1.622,1.298,4.704c2.434-2.434,1.622-6.489,3.244-8.76
			c0.487,0.811,0.974,3.082,0.649,5.84c1.298-3.731,0.648-6.164,0-7.786c-0.649,1.46-1.947,0.811-2.434,0.486
			c2.109-0.162,1.136-3.73,0.974-4.542c7.462,5.354,6.326,11.517,3.082,16.708c0.486-2.108,0.811-4.056,0.324-5.84
			c0,4.704-2.108,7.462-5.19,9.246c1.135-1.946,1.946-3.082,1.946-5.353c-1.136,4.217-4.056,7.3-7.3,9.084
			c1.298-0.974,2.271-2.596,2.596-4.704c0.324-2.92-0.812-2.109-1.136-1.623c-0.648,1.136-1.135,2.758-1.135,2.758
			c-0.812-4.866,2.757-5.677,1.622-10.868c-0.812-2.433-2.434-4.542-4.218-1.784c-0.974,1.136-1.136,2.92-1.136,2.92
			c-0.811-2.596-0.486-5.028,1.136-6.488c-0.974,0.162-2.109,0.973-2.596,1.784c0.812-3.082,3.569-2.108,5.678-4.704
			c0,0.973-0.649,1.622-1.298,2.433c1.784-0.486,3.568-2.433,4.217-4.055c0.163,1.784-0.486,3.893-1.622,5.19
			c2.271-0.812,3.245-3.568,3.894-6.65c0,0,1.46,4.542,0.324,5.19c-3.082,1.784-1.459,3.082-0.162,2.434
			C15.932,27.59,13.174,26.778,13.336,30.023z"/>
	</g>
	<g>
		<path fill="#FFF" d="M1.981,4.394c2.434,4.055,9.732,0.162,8.598,1.946c1.135,0.486,6.813-3.568,11.192-2.271
			c0.486,0.162,4.866-2.271,6.489-2.434c0.324-0.324,0.648-0.974,0.973-0.648c1.136,0.648,1.136-0.325,1.136,1.135
			c-3.894-1.298-4.38,3.244-9.246,4.866c-2.92,0.974-4.218-2.433-7.624-0.486c-1.298,0.812-6.164,0.486-6.164,0.486
			c5.353,0.487,4.055,2.434,0.486,2.434c6.002,1.784,5.028-5.353,12.004-1.622c1.135,0.486-0.487,2.434-0.974,2.434
			c-0.324,0.162,0.812,0.324,1.946-0.487l7.3-6.975c1.46-0.162,3.082-0.162,2.271,1.622c1.297-0.649,0.648-2.109,0.162-2.758
			c0.162-0.812-0.487-2.108-1.298-1.46c-0.486,0.324-0.973,0.812-0.973,0.812c-2.109,0.811-3.407,1.135-5.191,2.108
			c-1.622,0.811-1.46,0.974-1.946-0.162c-4.056,0.486-5.516,0.486-9.409,2.595C9.119,4.394,6.686,5.691,1.981,4.394z M3.441,26.941
			c-1.298-3.569,0.648-7.462,4.056-9.084c-1.947-0.162-3.407,1.784-4.542,3.082c0.811-2.92,2.92-4.542,5.515-5.678
			c-1.135-0.648-2.595-0.162-3.893,0.324c0.648-0.486,1.46-0.973,2.271-1.46c0.649-4.866-3.893-5.028-3.893-8.11
			c1.297,2.271,2.92,0.973,5.028,2.271C3.279,7.476,9.281,11.53,9.93,10.396c2.108,0,2.758,0.973,2.758,0.973
			c-0.162-0.324-1.946-0.648-2.108,0.325c-2.92-0.487-2.758,0.973-2.596,2.108c1.136-0.648,1.784-0.812,2.758-0.974
			c-1.298,2.434,0.973,1.136,3.244,1.46c-1.784,0.487-4.38,2.758-4.056,4.867C6.199,20.128,3.928,23.534,3.441,26.941z M27.124,9.26
			c-0.973,0.974-3.73,2.92-2.271,5.516c-0.486-3.082,3.731-5.029,6.164-5.84c0.974-2.758,1.46-1.947,0.324-2.92h-0.324L30.531,8.61
			C30.531,8.61,28.098,8.286,27.124,9.26z"/>
	</g>
	<g>
		<path fill="#FFF" d="M25.502,9.26c0,0-1.621,1.622-3.082,2.271c-1.297,0.649-3.73,0.812-4.38,0.325
			c-0.486-0.487-0.973,1.946-0.973,1.946s-1.46-1.946-1.622-1.136c-0.162,0.812-0.162,2.92,0.324,3.731
			c0.811,1.784,4.218,0.973,5.354,3.244c1.135-2.596-5.516-2.596-2.758-5.678c-0.162,2.434,3.406,2.434,4.38,5.028
			c0.486-1.46-1.46-5.353-2.596-5.677c0,0,1.784,0.162,2.758,0.162c0.811-0.162,1.622-0.974,0.974-1.136
			C23.394,12.018,25.341,11.044,25.502,9.26z"/>
	</g>
	<g>
		<path fill="#FFF" d="M24.367,15.1c0.811,4.38,6.488,5.353,3.082,12.004c-0.162-1.136-0.325-2.92-1.46-3.406
			c-0.324-0.325-0.812,0-0.648,0.486c0.161,0.973,0.811,2.595,1.135,3.244c1.136,2.271,0.812,3.893-0.811,5.84
			c0-1.298,0-3.569-1.136-4.38c-0.812-0.486-1.298,0.162-1.136,0.973c-2.108-1.135,1.947-4.055,2.92,1.298
			c0-0.162,0-0.486,0.162-0.811c0-0.812-0.162-1.784-0.648-2.596c-0.325-0.648-0.812-2.433-0.812-3.568
			c-0.162-2.758,1.946-0.486,2.434,0.973C28.909,20.128,24.205,18.506,24.367,15.1z"/>
	</g>
	<g>
		<path fill="#FFF" d="M13.298,35.161l-0.127-0.196c32.157-20.786,37.58-28.021,36.467-30.43
			c-1.534-3.32-15.734,0.903-15.878,0.946l-0.067-0.223C34.285,5.08,48.23,0.935,49.849,4.438
			C51.524,8.063,39.227,18.399,13.298,35.161z"/>
	</g>
	<g>
		<g>
			<g>
				<polygon fill="#FFB11B" points="7.761,36.888 9.687,27.183 11.643,36.881 				"/>
			</g>
			<g>
				<polygon fill="#FFB11B" points="7.761,36.888 9.717,46.586 11.643,36.881 				"/>
			</g>
		</g>
		<g>
			<g>
				<polygon fill="#FFB11B" points="9.705,38.825 0,36.899 9.699,34.943 				"/>
			</g>
			<g>
				<polygon fill="#FFB11B" points="9.705,38.825 19.403,36.87 9.699,34.943 				"/>
			</g>
		</g>
	</g>
</g>
</svg>
